<?xml version="1.0" encoding="UTF-8" standalone="no"?>
<!-- Created with Inkscape (http://www.inkscape.org/) -->

<svg
   xmlns:osb="http://www.openswatchbook.org/uri/2009/osb"
   xmlns:dc="http://purl.org/dc/elements/1.1/"
   xmlns:cc="http://creativecommons.org/ns#"
   xmlns:rdf="http://www.w3.org/1999/02/22-rdf-syntax-ns#"
   xmlns:svg="http://www.w3.org/2000/svg"
   xmlns="http://www.w3.org/2000/svg"
   xmlns:xlink="http://www.w3.org/1999/xlink"
   xmlns:sodipodi="http://sodipodi.sourceforge.net/DTD/sodipodi-0.dtd"
   xmlns:inkscape="http://www.inkscape.org/namespaces/inkscape"
   width="210mm"
   height="297mm"
   viewBox="0 0 210 297"
   version="1.1"
   id="svg8"
   inkscape:version="0.92.4 (5da689c313, 2019-01-14)"
   sodipodi:docname="labels.svg">
  <defs
     id="defs2">
    <linearGradient
       id="linearGradient6163"
       osb:paint="solid">
      <stop
         style="stop-color:#000000;stop-opacity:1;"
         offset="0"
         id="stop6161" />
    </linearGradient>
    <linearGradient
       id="linearGradient6157"
       osb:paint="solid">
      <stop
         style="stop-color:#000000;stop-opacity:1;"
         offset="0"
         id="stop6155" />
    </linearGradient>
    <linearGradient
       id="linearGradient6151"
       osb:paint="solid">
      <stop
         style="stop-color:#000000;stop-opacity:1;"
         offset="0"
         id="stop6149" />
    </linearGradient>
    <linearGradient
       id="linearGradient6145"
       osb:paint="solid">
      <stop
         style="stop-color:#000000;stop-opacity:1;"
         offset="0"
         id="stop6143" />
    </linearGradient>
    <linearGradient
       id="linearGradient6135"
       osb:paint="solid">
      <stop
         style="stop-color:#000000;stop-opacity:1;"
         offset="0"
         id="stop6133" />
    </linearGradient>
    <linearGradient
       id="linearGradient6117"
       osb:paint="solid">
      <stop
         style="stop-color:#000000;stop-opacity:1;"
         offset="0"
         id="stop6115" />
    </linearGradient>
    <linearGradient
       id="linearGradient6111"
       osb:paint="solid">
      <stop
         style="stop-color:#000000;stop-opacity:1;"
         offset="0"
         id="stop6109" />
    </linearGradient>
    <linearGradient
       id="linearGradient6105"
       osb:paint="solid">
      <stop
         style="stop-color:#000000;stop-opacity:1;"
         offset="0"
         id="stop6103" />
    </linearGradient>
    <linearGradient
       id="linearGradient6099"
       osb:paint="solid">
      <stop
         style="stop-color:#c8c8c8;stop-opacity:1;"
         offset="0"
         id="stop6097" />
    </linearGradient>
    <linearGradient
       id="linearGradient6093"
       osb:paint="solid">
      <stop
         style="stop-color:#000000;stop-opacity:1;"
         offset="0"
         id="stop6091" />
    </linearGradient>
    <linearGradient
       id="linearGradient6085"
       osb:paint="solid">
      <stop
         style="stop-color:#00ff00;stop-opacity:1;"
         offset="0"
         id="stop6083" />
    </linearGradient>
    <linearGradient
       id="linearGradient6079"
       osb:paint="solid">
      <stop
         style="stop-color:#808080;stop-opacity:1;"
         offset="0"
         id="stop6077" />
    </linearGradient>
    <linearGradient
       id="linearGradient6073"
       osb:paint="solid">
      <stop
         style="stop-color:#000000;stop-opacity:1;"
         offset="0"
         id="stop6071" />
    </linearGradient>
    <linearGradient
       id="linearGradient6035"
       osb:paint="solid">
      <stop
         style="stop-color:#000000;stop-opacity:1;"
         offset="0"
         id="stop6033" />
    </linearGradient>
    <linearGradient
       inkscape:collect="always"
       xlink:href="#linearGradient6085"
       id="linearGradient6089"
       x1="31.157595"
       y1="23.279203"
       x2="33.657595"
       y2="23.279203"
       gradientUnits="userSpaceOnUse"
       gradientTransform="translate(64.255953,2.6458333)" />
  </defs>
  <sodipodi:namedview
     id="base"
     pagecolor="#ffffff"
     bordercolor="#666666"
     borderopacity="1.0"
     inkscape:pageopacity="0.0"
     inkscape:pageshadow="2"
     inkscape:zoom="2.8"
     inkscape:cx="403.36569"
     inkscape:cy="1021.013"
     inkscape:document-units="mm"
     inkscape:current-layer="layer1"
     showgrid="false"
     inkscape:window-width="2560"
     inkscape:window-height="1009"
     inkscape:window-x="-8"
     inkscape:window-y="-8"
     inkscape:window-maximized="1" />
  <metadata
     id="metadata5">
    <rdf:RDF>
      <cc:Work
         rdf:about="">
        <dc:format>image/svg+xml</dc:format>
        <dc:type
           rdf:resource="http://purl.org/dc/dcmitype/StillImage" />
        <dc:title></dc:title>
      </cc:Work>
    </rdf:RDF>
  </metadata>
  <g
     inkscape:label="Layer 1"
     inkscape:groupmode="layer"
     id="layer1">
    <rect
       style="opacity:1;fill:#999999;fill-opacity:1;stroke:none;stroke-width:0.1;stroke-linecap:butt;stroke-linejoin:miter;stroke-miterlimit:10;stroke-dasharray:none;stroke-opacity:1;paint-order:fill markers stroke"
       id="rect4518"
       width="2.5"
       height="3"
       x="75.01355"
       y="24.425037"
       ry="0" />
    <rect
       ry="0"
       y="24.425037"
       x="77.563553"
       height="3"
       width="2.5"
       id="rect4537"
       style="opacity:1;fill:#999999;fill-opacity:1;stroke:none;stroke-width:0.1;stroke-linecap:square;stroke-linejoin:miter;stroke-miterlimit:10;stroke-dasharray:none;stroke-opacity:1;paint-order:markers stroke fill" />
    <rect
       style="opacity:1;fill:#000000;fill-opacity:1;stroke:none;stroke-width:0.18520832;stroke-linecap:round;stroke-linejoin:round;stroke-miterlimit:10;stroke-dasharray:none;stroke-opacity:1;paint-order:stroke fill markers"
       id="rect4539"
       width="2.5"
       height="3"
       x="80.113556"
       y="24.425037"
       ry="0" />
    <rect
       ry="0"
       y="24.425037"
       x="82.663551"
       height="3"
       width="2.5"
       id="rect4541"
       style="opacity:1;fill:#999999;fill-opacity:1;stroke:none;stroke-width:0.18520832;stroke-linecap:round;stroke-linejoin:round;stroke-miterlimit:10;stroke-dasharray:none;stroke-opacity:1;paint-order:stroke fill markers" />
    <rect
       style="opacity:1;fill:#999999;fill-opacity:1;stroke:none;stroke-width:0.18520832;stroke-linecap:round;stroke-linejoin:round;stroke-miterlimit:10;stroke-dasharray:none;stroke-opacity:1;paint-order:stroke fill markers"
       id="rect4543"
       width="2.5"
       height="3"
       x="85.213554"
       y="24.425037"
       ry="0" />
    <rect
       ry="0"
       y="24.425037"
       x="87.76355"
       height="3"
       width="2.5"
       id="rect4545"
       style="opacity:1;fill:#999999;fill-opacity:1;stroke:none;stroke-width:0.18520832;stroke-linecap:round;stroke-linejoin:round;stroke-miterlimit:10;stroke-dasharray:none;stroke-opacity:1;paint-order:stroke fill markers" />
    <rect
       style="opacity:1;fill:#01ff00;fill-opacity:1;stroke:none;stroke-width:0.18520832;stroke-linecap:round;stroke-linejoin:round;stroke-miterlimit:10;stroke-dasharray:none;stroke-opacity:1;paint-order:stroke fill markers"
       id="rect4547"
       width="2.5"
       height="3"
       x="90.313553"
       y="24.425037"
       ry="0" />
    <rect
       ry="0"
       y="24.425037"
       x="92.863548"
       height="3"
       width="2.5"
       id="rect4549"
       style="opacity:1;fill:#000000;fill-opacity:1;stroke:none;stroke-width:0.18520832;stroke-linecap:round;stroke-linejoin:round;stroke-miterlimit:10;stroke-dasharray:none;stroke-opacity:1;paint-order:stroke fill markers" />
    <rect
       style="opacity:1;fill:url(#linearGradient6089);fill-opacity:1;stroke:none;stroke-width:0.18520832;stroke-linecap:round;stroke-linejoin:round;stroke-miterlimit:10;stroke-dasharray:none;stroke-opacity:1;paint-order:stroke fill markers"
       id="rect4551"
       width="2.5"
       height="3"
       x="95.413551"
       y="24.425037"
       ry="0" />
    <rect
       ry="0"
       y="24.425037"
       x="97.963547"
       height="3"
       width="2.5"
       id="rect4553"
       style="opacity:1;fill:#ff0000;fill-opacity:1;stroke:none;stroke-width:0.18520832;stroke-linecap:round;stroke-linejoin:round;stroke-miterlimit:10;stroke-dasharray:none;stroke-opacity:1;paint-order:stroke fill markers" />
    <rect
       style="opacity:1;fill:#999999;fill-opacity:1;stroke:none;stroke-width:0.18520832;stroke-linecap:round;stroke-linejoin:round;stroke-miterlimit:10;stroke-dasharray:none;stroke-opacity:1;paint-order:stroke fill markers"
       id="rect4555"
       width="2.5"
       height="3"
       x="100.51355"
       y="24.425037"
       ry="0" />
    <rect
       ry="0"
       y="24.425037"
       x="103.06355"
       height="3"
       width="2.5"
       id="rect4557"
       style="opacity:1;fill:#ff0000;fill-opacity:1;stroke:none;stroke-width:0.18520832;stroke-linecap:round;stroke-linejoin:round;stroke-miterlimit:10;stroke-dasharray:none;stroke-opacity:1;paint-order:stroke fill markers" />
    <rect
       style="opacity:1;fill:#000000;fill-opacity:1;stroke:none;stroke-width:0.18520832;stroke-linecap:round;stroke-linejoin:round;stroke-miterlimit:10;stroke-dasharray:none;stroke-opacity:1;paint-order:stroke fill markers"
       id="rect4559"
       width="2.5"
       height="3"
       x="105.61355"
       y="24.425037"
       ry="0" />
    <rect
       ry="0"
       y="24.425037"
       x="108.16354"
       height="3"
       width="2.5"
       id="rect4561"
       style="opacity:1;fill:#ff0000;fill-opacity:1;stroke:none;stroke-width:0.18520832;stroke-linecap:round;stroke-linejoin:round;stroke-miterlimit:10;stroke-dasharray:none;stroke-opacity:1;paint-order:stroke fill markers" />
    <rect
       style="opacity:1;fill:#ff0000;fill-opacity:1;stroke:none;stroke-width:0.18520832;stroke-linecap:round;stroke-linejoin:round;stroke-miterlimit:10;stroke-dasharray:none;stroke-opacity:1;paint-order:stroke fill markers"
       id="rect4563"
       width="2.5"
       height="3"
       x="110.71355"
       y="24.425037"
       ry="0" />
    <rect
       ry="0"
       y="24.425037"
       x="113.26354"
       height="3"
       width="2.5"
       id="rect4565"
       style="opacity:1;fill:#ff0000;fill-opacity:1;stroke:none;stroke-width:0.18520832;stroke-linecap:round;stroke-linejoin:round;stroke-miterlimit:10;stroke-dasharray:none;stroke-opacity:1;paint-order:stroke fill markers" />
    <rect
       style="opacity:1;fill:#ff0000;fill-opacity:1;stroke:none;stroke-width:0.18520832;stroke-linecap:round;stroke-linejoin:round;stroke-miterlimit:10;stroke-dasharray:none;stroke-opacity:1;paint-order:stroke fill markers"
       id="rect4567"
       width="2.5"
       height="3"
       x="115.81355"
       y="24.425037"
       ry="0" />
    <rect
       ry="0"
       y="24.425037"
       x="118.36355"
       height="3"
       width="2.5"
       id="rect4569"
       style="opacity:1;fill:#000000;fill-opacity:1;stroke:none;stroke-width:0.18520832;stroke-linecap:round;stroke-linejoin:round;stroke-miterlimit:10;stroke-dasharray:none;stroke-opacity:1;paint-order:stroke fill markers" />
    <rect
       style="opacity:1;fill:#ff0000;fill-opacity:1;stroke:none;stroke-width:0.18520832;stroke-linecap:round;stroke-linejoin:round;stroke-miterlimit:10;stroke-dasharray:none;stroke-opacity:1;paint-order:stroke fill markers"
       id="rect4571"
       width="2.5"
       height="3"
       x="120.91354"
       y="24.425037"
       ry="0" />
    <rect
       ry="0"
       y="24.425037"
       x="123.46353"
       height="3"
       width="2.5"
       id="rect4573"
       style="opacity:1;fill:#ff0000;fill-opacity:1;stroke:none;stroke-width:0.18520832;stroke-linecap:round;stroke-linejoin:round;stroke-miterlimit:10;stroke-dasharray:none;stroke-opacity:1;paint-order:stroke fill markers" />
    <g
       aria-label="XXGXXX8G98X9G1234G56"
       style="font-style:normal;font-variant:normal;font-weight:normal;font-stretch:normal;font-size:10.58333302px;line-height:1.25;font-family:Audiowide;-inkscape-font-specification:Audiowide;letter-spacing:0.93397915px;word-spacing:0px;fill:#ffffff;fill-opacity:1;stroke:none;stroke-width:0.26458332"
       id="text6169">
      <path
         d="m 75.604597,27.168482 q -0.02469,0 -0.03175,-0.01411 -0.0071,-0.01411 0,-0.03528 l 0.483305,-1.17475 q 0.0035,-0.01058 0,-0.02117 l -0.483305,-1.17475 q -0.0035,-0.0071 -0.0035,-0.02117 0,-0.02822 0.03528,-0.02822 h 0.335139 q 0.03528,0 0.04586,0.03528 l 0.282222,0.765528 q 0.0035,0.01058 0.01058,0.01058 0.0071,0 0.01058,-0.01058 l 0.278694,-0.765528 q 0.01058,-0.03528 0.04586,-0.03528 h 0.331611 q 0.0247,0 0.03175,0.01411 0.0071,0.01411 0,0.03528 l -0.483305,1.17475 q -0.0035,0.01058 0,0.02117 l 0.483305,1.17475 q 0.0035,0.0071 0.0035,0.02117 0,0.02822 -0.03528,0.02822 H 76.61706 q -0.03881,0 -0.04939,-0.03528 l -0.278694,-0.762 q -0.0035,-0.01058 -0.01058,-0.01058 -0.0071,0 -0.01058,0.01058 l -0.282222,0.762 q -0.01058,0.03528 -0.04939,0.03528 z"
         style="fill:#ffffff"
         id="path970"
         inkscape:connector-curvature="0" />
      <path
         d="m 78.164661,27.168482 q -0.02469,0 -0.03175,-0.01411 -0.0071,-0.01411 0,-0.03528 l 0.483306,-1.17475 q 0.0035,-0.01058 0,-0.02117 l -0.483306,-1.17475 q -0.0035,-0.0071 -0.0035,-0.02117 0,-0.02822 0.03528,-0.02822 H 78.4998 q 0.03528,0 0.04586,0.03528 l 0.282222,0.765528 q 0.0035,0.01058 0.01058,0.01058 0.0071,0 0.01058,-0.01058 l 0.278694,-0.765528 q 0.01058,-0.03528 0.04586,-0.03528 h 0.331611 q 0.02469,0 0.03175,0.01411 0.0071,0.01411 0,0.03528 l -0.483306,1.17475 q -0.0035,0.01058 0,0.02117 l 0.483306,1.17475 q 0.0035,0.0071 0.0035,0.02117 0,0.02822 -0.03528,0.02822 h -0.328084 q -0.0388,0 -0.04939,-0.03528 l -0.278694,-0.762 q -0.0035,-0.01058 -0.01058,-0.01058 -0.0071,0 -0.01058,0.01058 l -0.282222,0.762 q -0.01058,0.03528 -0.04939,0.03528 z"
         style="fill:#ffffff"
         id="path972"
         inkscape:connector-curvature="0" />
      <path
         d="m 81.395003,27.196704 q -0.299861,0 -0.483305,-0.172861 -0.179917,-0.176389 -0.179917,-0.465667 v -1.248833 q 0,-0.289278 0.179917,-0.462139 0.183444,-0.176389 0.483305,-0.176389 0.299861,0 0.483306,0.176389 0.186972,0.172861 0.186972,0.465667 v 0.137583 q 0,0.01764 -0.01411,0.03175 -0.01058,0.01058 -0.02822,0.01058 h -0.324556 q -0.01764,0 -0.03175,-0.01058 -0.01058,-0.01411 -0.01058,-0.03175 v -0.144639 q 0,-0.127 -0.07408,-0.204611 -0.07055,-0.07761 -0.186972,-0.07761 -0.116416,0 -0.186972,0.07761 -0.07056,0.07761 -0.07056,0.204611 v 1.255889 q 0,0.127 0.07056,0.204611 0.07056,0.07761 0.186972,0.07761 0.116417,0 0.186972,-0.07761 0.07408,-0.07761 0.07408,-0.204611 v -0.338667 q 0,-0.01764 -0.01764,-0.01764 H 81.42323 q -0.01764,0 -0.03175,-0.01058 -0.01058,-0.01411 -0.01058,-0.03175 v -0.257528 q 0,-0.01764 0.01058,-0.02822 0.01411,-0.01411 0.03175,-0.01411 h 0.599723 q 0.01764,0 0.02822,0.01411 0.01411,0.01058 0.01411,0.02822 v 0.652639 q 0,0.289278 -0.186972,0.465667 -0.183445,0.172861 -0.483306,0.172861 z"
         style="letter-spacing:0.93397915px;fill:#ffffff;fill-opacity:1"
         id="path974"
         inkscape:connector-curvature="0" />
      <path
         d="m 83.271009,27.168482 q -0.02469,0 -0.03175,-0.01411 -0.0071,-0.01411 0,-0.03528 l 0.483306,-1.17475 q 0.0035,-0.01058 0,-0.02117 l -0.483306,-1.17475 q -0.0035,-0.0071 -0.0035,-0.02117 0,-0.02822 0.03528,-0.02822 h 0.335139 q 0.03528,0 0.04586,0.03528 l 0.282222,0.765528 q 0.0035,0.01058 0.01058,0.01058 0.0071,0 0.01058,-0.01058 l 0.278694,-0.765528 q 0.01058,-0.03528 0.04586,-0.03528 h 0.331611 q 0.02469,0 0.03175,0.01411 0.0071,0.01411 0,0.03528 l -0.483306,1.17475 q -0.0035,0.01058 0,0.02117 l 0.483306,1.17475 q 0.0035,0.0071 0.0035,0.02117 0,0.02822 -0.03528,0.02822 h -0.328084 q -0.0388,0 -0.04939,-0.03528 l -0.278694,-0.762 q -0.0035,-0.01058 -0.01058,-0.01058 -0.0071,0 -0.01058,0.01058 l -0.282222,0.762 q -0.01058,0.03528 -0.04939,0.03528 z"
         style="fill:#ffffff"
         id="path976"
         inkscape:connector-curvature="0" />
      <path
         d="m 85.831073,27.168482 q -0.02469,0 -0.03175,-0.01411 -0.0071,-0.01411 0,-0.03528 l 0.483306,-1.17475 q 0.0035,-0.01058 0,-0.02117 l -0.483306,-1.17475 q -0.0035,-0.0071 -0.0035,-0.02117 0,-0.02822 0.03528,-0.02822 h 0.335139 q 0.03528,0 0.04586,0.03528 l 0.282223,0.765528 q 0.0035,0.01058 0.01058,0.01058 0.0071,0 0.01058,-0.01058 l 0.278695,-0.765528 q 0.01058,-0.03528 0.04586,-0.03528 h 0.331611 q 0.02469,0 0.03175,0.01411 0.0071,0.01411 0,0.03528 l -0.483306,1.17475 q -0.0035,0.01058 0,0.02117 l 0.483306,1.17475 q 0.0035,0.0071 0.0035,0.02117 0,0.02822 -0.03528,0.02822 h -0.328083 q -0.03881,0 -0.04939,-0.03528 l -0.278695,-0.762 q -0.0035,-0.01058 -0.01058,-0.01058 -0.0071,0 -0.01058,0.01058 l -0.282223,0.762 q -0.01058,0.03528 -0.04939,0.03528 z"
         style="fill:#ffffff"
         id="path978"
         inkscape:connector-curvature="0" />
      <path
         d="m 88.391138,27.168482 q -0.02469,0 -0.03175,-0.01411 -0.0071,-0.01411 0,-0.03528 l 0.483305,-1.17475 q 0.0035,-0.01058 0,-0.02117 l -0.483305,-1.17475 q -0.0035,-0.0071 -0.0035,-0.02117 0,-0.02822 0.03528,-0.02822 h 0.335139 q 0.03528,0 0.04586,0.03528 l 0.282222,0.765528 q 0.0035,0.01058 0.01058,0.01058 0.0071,0 0.01058,-0.01058 l 0.278694,-0.765528 q 0.01058,-0.03528 0.04586,-0.03528 h 0.331611 q 0.02469,0 0.03175,0.01411 0.0071,0.01411 0,0.03528 l -0.483305,1.17475 q -0.0035,0.01058 0,0.02117 l 0.483305,1.17475 q 0.0035,0.0071 0.0035,0.02117 0,0.02822 -0.03528,0.02822 H 89.40361 q -0.03881,0 -0.04939,-0.03528 l -0.278694,-0.762 q -0.0035,-0.01058 -0.01058,-0.01058 -0.0071,0 -0.01058,0.01058 l -0.282222,0.762 q -0.01058,0.03528 -0.04939,0.03528 z"
         style="fill:#ffffff"
         id="path980"
         inkscape:connector-curvature="0" />
      <path
         d="m 91.956619,25.859676 q -0.02117,0.01411 0,0.0247 0.116416,0.06703 0.176389,0.204611 0.07408,0.165805 0.07408,0.373944 0,0.179917 -0.05292,0.331611 -0.07055,0.186973 -0.22225,0.296334 -0.151694,0.105833 -0.359833,0.105833 -0.204611,0 -0.356306,-0.105833 -0.151694,-0.105834 -0.22225,-0.296334 -0.04939,-0.155222 -0.04939,-0.331611 0,-0.208139 0.0635,-0.356305 0.05292,-0.144639 0.186972,-0.218722 0.01411,-0.01058 0,-0.02117 -0.123472,-0.07761 -0.183445,-0.208139 -0.06703,-0.151694 -0.06703,-0.338667 0,-0.201083 0.06703,-0.338666 0.07056,-0.151695 0.218723,-0.236361 0.148166,-0.08819 0.342194,-0.08819 0.1905,0 0.338667,0.08467 0.148166,0.08114 0.22225,0.239889 0.07408,0.137583 0.07408,0.342194 0,0.197556 -0.07056,0.331611 -0.0635,0.130528 -0.179916,0.204611 z m -0.578556,-0.691444 q -0.03175,0.08467 -0.03175,0.1905 0,0.109361 0.0247,0.172861 l 0.01764,0.04939 q 0.02469,0.06703 0.07055,0.102305 0.04939,0.03528 0.112889,0.03528 0.07408,0 0.127,-0.04233 0.05292,-0.04586 0.07408,-0.127 0.03175,-0.08114 0.03175,-0.1905 0,-0.109361 -0.0388,-0.194028 -0.0247,-0.07055 -0.07408,-0.112889 -0.04939,-0.04233 -0.119944,-0.04233 -0.07056,0 -0.119944,0.04233 -0.04939,0.04233 -0.07408,0.116417 z m 0.405695,1.456972 q 0.01764,-0.08819 0.01764,-0.186972 0,-0.137583 -0.03175,-0.225778 -0.02117,-0.08467 -0.07408,-0.130528 -0.04939,-0.04939 -0.123472,-0.04939 -0.07408,0 -0.127,0.04939 -0.04939,0.04939 -0.07056,0.141111 -0.02469,0.08467 -0.02469,0.211667 0,0.127 0.01764,0.201083 0.02117,0.09878 0.07408,0.155223 0.05292,0.05292 0.130528,0.05292 0.08114,0 0.137583,-0.05644 0.05644,-0.05997 0.07408,-0.162278 z"
         style="fill:#ffffff"
         id="path982"
         inkscape:connector-curvature="0" />
      <path
         d="m 94.08508,27.196704 q -0.299861,0 -0.483305,-0.172861 -0.179917,-0.176389 -0.179917,-0.465667 v -1.248833 q 0,-0.289278 0.179917,-0.462139 0.183444,-0.176389 0.483305,-0.176389 0.299861,0 0.483306,0.176389 0.186972,0.172861 0.186972,0.465667 v 0.137583 q 0,0.01764 -0.01411,0.03175 -0.01058,0.01058 -0.02822,0.01058 h -0.324555 q -0.01764,0 -0.03175,-0.01058 -0.01058,-0.01411 -0.01058,-0.03175 v -0.144639 q 0,-0.127 -0.07408,-0.204611 -0.07055,-0.07761 -0.186972,-0.07761 -0.116417,0 -0.186972,0.07761 -0.07056,0.07761 -0.07056,0.204611 v 1.255889 q 0,0.127 0.07056,0.204611 0.07056,0.07761 0.186972,0.07761 0.116417,0 0.186972,-0.07761 0.07408,-0.07761 0.07408,-0.204611 v -0.338667 q 0,-0.01764 -0.01764,-0.01764 h -0.215195 q -0.01764,0 -0.03175,-0.01058 -0.01058,-0.01411 -0.01058,-0.03175 v -0.257528 q 0,-0.01764 0.01058,-0.02822 0.01411,-0.01411 0.03175,-0.01411 h 0.599722 q 0.01764,0 0.02822,0.01411 0.01411,0.01058 0.01411,0.02822 v 0.652639 q 0,0.289278 -0.186972,0.465667 -0.183445,0.172861 -0.483306,0.172861 z"
         style="letter-spacing:0.98425001px;fill:#ffffff"
         id="path984"
         inkscape:connector-curvature="0" />
      <path
         d="m 97.224914,26.575815 q 0,0.28575 -0.176389,0.455083 -0.172861,0.165806 -0.458611,0.165806 -0.268112,0 -0.437445,-0.169333 -0.169333,-0.169334 -0.169333,-0.451556 v -0.08819 q 0,-0.01764 0.01058,-0.02822 0.01411,-0.01411 0.03175,-0.01411 h 0.324556 q 0.01764,0 0.02822,0.01411 0.01411,0.01058 0.01411,0.02822 v 0.06703 q 0,0.119944 0.05644,0.201083 0.05997,0.07761 0.141112,0.07761 0.09878,0 0.15875,-0.07761 0.0635,-0.07761 0.0635,-0.201083 v -0.363362 q 0,-0.01058 -0.0071,-0.01411 -0.0071,-0.0035 -0.01411,0.0035 -0.102306,0.09525 -0.254,0.09525 -0.243417,0 -0.395111,-0.155222 -0.151695,-0.155222 -0.176389,-0.41275 -0.01764,-0.116417 -0.01764,-0.246945 0,-0.08114 0.0071,-0.229305 0.01764,-0.268111 0.183444,-0.41275 0.169333,-0.148167 0.4445,-0.148167 0.261056,0 0.423333,0.137584 0.162278,0.134055 0.194028,0.398638 0.02117,0.09525 0.02117,0.22225 z m -0.426862,-0.846666 q 0.01411,-0.123473 0.01411,-0.239889 0,-0.105834 -0.01058,-0.236361 -0.01764,-0.112889 -0.07408,-0.172862 -0.05292,-0.05997 -0.141111,-0.05997 -0.08819,0 -0.144639,0.0635 -0.05292,0.0635 -0.07056,0.179917 -0.01058,0.127 -0.01058,0.225778 0,0.09172 0.01764,0.250472 0.04233,0.204611 0.208139,0.204611 0.08467,0 0.137583,-0.05292 0.05644,-0.05644 0.07408,-0.162277 z"
         style="letter-spacing:1.07949996px;fill:#ffffff"
         id="path986"
         inkscape:connector-curvature="0" />
      <path
         d="m 99.591445,25.859676 q -0.02117,0.01411 0,0.0247 0.116417,0.06703 0.176389,0.204611 0.07408,0.165805 0.07408,0.373944 0,0.179917 -0.05292,0.331611 -0.07056,0.186973 -0.22225,0.296334 -0.151694,0.105833 -0.359833,0.105833 -0.204611,0 -0.356306,-0.105833 -0.151694,-0.105834 -0.22225,-0.296334 -0.04939,-0.155222 -0.04939,-0.331611 0,-0.208139 0.0635,-0.356305 0.05292,-0.144639 0.186972,-0.218722 0.01411,-0.01058 0,-0.02117 -0.123472,-0.07761 -0.183444,-0.208139 -0.06703,-0.151694 -0.06703,-0.338667 0,-0.201083 0.06703,-0.338666 0.07056,-0.151695 0.218722,-0.236361 0.148167,-0.08819 0.342195,-0.08819 0.1905,0 0.338666,0.08467 0.148167,0.08114 0.22225,0.239889 0.07408,0.137583 0.07408,0.342194 0,0.197556 -0.07056,0.331611 -0.0635,0.130528 -0.179917,0.204611 z M 99.01289,25.168232 q -0.03175,0.08467 -0.03175,0.1905 0,0.109361 0.02469,0.172861 l 0.01764,0.04939 q 0.0247,0.06703 0.07056,0.102305 0.04939,0.03528 0.112889,0.03528 0.07408,0 0.127,-0.04233 0.05292,-0.04586 0.07408,-0.127 0.03175,-0.08114 0.03175,-0.1905 0,-0.109361 -0.03881,-0.194028 -0.02469,-0.07055 -0.07408,-0.112889 -0.04939,-0.04233 -0.119944,-0.04233 -0.07056,0 -0.119945,0.04233 -0.04939,0.04233 -0.07408,0.116417 z m 0.405694,1.456972 q 0.01764,-0.08819 0.01764,-0.186972 0,-0.137583 -0.03175,-0.225778 -0.02117,-0.08467 -0.07408,-0.130528 -0.04939,-0.04939 -0.123472,-0.04939 -0.07408,0 -0.127,0.04939 -0.04939,0.04939 -0.07056,0.141111 -0.02469,0.08467 -0.02469,0.211667 0,0.127 0.01764,0.201083 0.02117,0.09878 0.07408,0.155223 0.05292,0.05292 0.130528,0.05292 0.08114,0 0.137583,-0.05644 0.05644,-0.05997 0.07408,-0.162278 z"
         style="fill:#ffffff"
         id="path988"
         inkscape:connector-curvature="0" />
      <path
         d="m 101.04963,27.168482 q -0.0247,0 -0.0317,-0.01411 -0.007,-0.01411 0,-0.03528 l 0.48331,-1.17475 q 0.004,-0.01058 0,-0.02117 l -0.48331,-1.17475 q -0.004,-0.0071 -0.004,-0.02117 0,-0.02822 0.0353,-0.02822 h 0.33514 q 0.0353,0 0.0459,0.03528 l 0.28222,0.765528 q 0.004,0.01058 0.0106,0.01058 0.007,0 0.0106,-0.01058 l 0.27869,-0.765528 q 0.0106,-0.03528 0.0459,-0.03528 h 0.33161 q 0.0247,0 0.0318,0.01411 0.007,0.01411 0,0.03528 l -0.48331,1.17475 q -0.004,0.01058 0,0.02117 l 0.48331,1.17475 q 0.004,0.0071 0.004,0.02117 0,0.02822 -0.0353,0.02822 h -0.32809 q -0.0388,0 -0.0494,-0.03528 l -0.27869,-0.762 q -0.004,-0.01058 -0.0106,-0.01058 -0.007,0 -0.0106,0.01058 l -0.28222,0.762 q -0.0106,0.03528 -0.0494,0.03528 z"
         style="letter-spacing:1.02129161px;fill:#ffffff"
         id="path990"
         inkscape:connector-curvature="0" />
      <path
         d="m 104.91056,26.575815 q 0,0.28575 -0.17639,0.455083 -0.17286,0.165806 -0.45861,0.165806 -0.26811,0 -0.43744,-0.169333 -0.16933,-0.169334 -0.16933,-0.451556 v -0.08819 q 0,-0.01764 0.0106,-0.02822 0.0141,-0.01411 0.0317,-0.01411 h 0.32455 q 0.0176,0 0.0282,0.01411 0.0141,0.01058 0.0141,0.02822 v 0.06703 q 0,0.119944 0.0564,0.201083 0.06,0.07761 0.14111,0.07761 0.0988,0 0.15875,-0.07761 0.0635,-0.07761 0.0635,-0.201083 v -0.363362 q 0,-0.01058 -0.007,-0.01411 -0.007,-0.0035 -0.0141,0.0035 -0.10231,0.09525 -0.254,0.09525 -0.24342,0 -0.39511,-0.155222 -0.1517,-0.155222 -0.17639,-0.41275 -0.0176,-0.116417 -0.0176,-0.246945 0,-0.08114 0.007,-0.229305 0.0176,-0.268111 0.18345,-0.41275 0.16933,-0.148167 0.4445,-0.148167 0.26105,0 0.42333,0.137584 0.16228,0.134055 0.19403,0.398638 0.0212,0.09525 0.0212,0.22225 z m -0.42686,-0.846666 q 0.0141,-0.123473 0.0141,-0.239889 0,-0.105834 -0.0106,-0.236361 -0.0176,-0.112889 -0.0741,-0.172862 -0.0529,-0.05997 -0.14111,-0.05997 -0.0882,0 -0.14464,0.0635 -0.0529,0.0635 -0.0706,0.179917 -0.0106,0.127 -0.0106,0.225778 0,0.09172 0.0176,0.250472 0.0423,0.204611 0.20814,0.204611 0.0847,0 0.13758,-0.05292 0.0564,-0.05644 0.0741,-0.162277 z"
         style="fill:#ffffff"
         id="path992"
         inkscape:connector-curvature="0" />
      <path
         d="m 106.79644,27.196704 q -0.29987,0 -0.48331,-0.172861 -0.17992,-0.176389 -0.17992,-0.465667 v -1.248833 q 0,-0.289278 0.17992,-0.462139 0.18344,-0.176389 0.48331,-0.176389 0.29986,0 0.4833,0.176389 0.18697,0.172861 0.18697,0.465667 v 0.137583 q 0,0.01764 -0.0141,0.03175 -0.0106,0.01058 -0.0282,0.01058 h -0.32456 q -0.0176,0 -0.0317,-0.01058 -0.0106,-0.01411 -0.0106,-0.03175 v -0.144639 q 0,-0.127 -0.0741,-0.204611 -0.0706,-0.07761 -0.18697,-0.07761 -0.11642,0 -0.18698,0.07761 -0.0705,0.07761 -0.0705,0.204611 v 1.255889 q 0,0.127 0.0705,0.204611 0.0706,0.07761 0.18698,0.07761 0.11641,0 0.18697,-0.07761 0.0741,-0.07761 0.0741,-0.204611 v -0.338667 q 0,-0.01764 -0.0176,-0.01764 h -0.21519 q -0.0176,0 -0.0317,-0.01058 -0.0106,-0.01411 -0.0106,-0.03175 v -0.257528 q 0,-0.01764 0.0106,-0.02822 0.0141,-0.01411 0.0317,-0.01411 h 0.59972 q 0.0176,0 0.0282,0.01411 0.0141,0.01058 0.0141,0.02822 v 0.652639 q 0,0.289278 -0.18697,0.465667 -0.18344,0.172861 -0.4833,0.172861 z"
         style="letter-spacing:1.28587496px;fill:#ffffff"
         id="path994"
         inkscape:connector-curvature="0" />
      <path
         d="m 109.23953,24.713149 q 0.0353,-0.01411 0.0529,-0.01411 h 0.33867 q 0.0176,0 0.0282,0.01411 0.0141,0.01058 0.0141,0.02822 v 2.384777 q 0,0.01764 -0.0141,0.03175 -0.0106,0.01058 -0.0282,0.01058 h -0.32456 q -0.0176,0 -0.0318,-0.01058 -0.0106,-0.01411 -0.0106,-0.03175 V 25.10826 q 0,-0.0071 -0.007,-0.01058 -0.007,-0.0071 -0.0141,-0.0035 l -0.25047,0.07408 q -0.007,0.0035 -0.0176,0.0035 -0.0318,0 -0.0318,-0.03881 v -0.232833 q 0,-0.03528 0.0318,-0.04939 z"
         style="letter-spacing:1.37583327px;fill:#ffffff"
         id="path996"
         inkscape:connector-curvature="0" />
      <path
         d="m 111.34782,27.168482 q -0.0176,0 -0.0318,-0.01058 -0.0106,-0.01411 -0.0106,-0.03175 V 26.84393 q 0,-0.03175 0.0176,-0.05292 l 0.13758,-0.186973 q 0.13758,-0.183444 0.26811,-0.373944 0.13406,-0.1905 0.22578,-0.342194 0.20461,-0.338667 0.20461,-0.560917 0,-0.141111 -0.0635,-0.22225 -0.06,-0.08114 -0.16228,-0.08114 -0.1023,0 -0.16228,0.08114 -0.06,0.07761 -0.0564,0.208139 v 0.137583 q 0,0.01764 -0.0141,0.03175 -0.0106,0.01058 -0.0282,0.01058 h -0.33162 q -0.0176,0 -0.0318,-0.01058 -0.0106,-0.01411 -0.0106,-0.03175 V 25.29876 q 0.0141,-0.282223 0.1905,-0.455084 0.17992,-0.172861 0.46214,-0.172861 0.27869,0 0.44803,0.183445 0.17286,0.179916 0.17286,0.47625 0,0.176389 -0.06,0.34925 -0.06,0.172861 -0.1905,0.370416 -0.10231,0.162278 -0.37748,0.553861 -0.0388,0.05644 -0.0741,0.105834 -0.0318,0.04586 -0.0564,0.08467 -0.007,0.0071 -0.004,0.01411 0.004,0.0071 0.0141,0.0071 h 0.75494 q 0.0176,0 0.0282,0.01411 0.0141,0.01058 0.0141,0.02822 v 0.268111 q 0,0.01764 -0.0141,0.03175 -0.0106,0.01058 -0.0282,0.01058 z"
         style="letter-spacing:0.97102082px;fill:#ffffff"
         id="path998"
         inkscape:connector-curvature="0" />
      <path
         d="m 115.15088,26.163065 q 0.004,0.03881 0.004,0.127 v 0.109361 0.105834 q 0,0.08819 -0.004,0.130527 -0.0212,0.250473 -0.20814,0.405695 -0.18345,0.155222 -0.4692,0.155222 -0.2928,0 -0.4833,-0.155222 -0.1905,-0.155222 -0.21167,-0.405695 -0.0106,-0.09525 -0.0106,-0.197555 0,-0.04233 0.0423,-0.04233 h 0.32456 q 0.0423,0 0.0423,0.04233 0,0.102305 0.007,0.144639 0.0176,0.119944 0.0917,0.1905 0.0776,0.07055 0.19755,0.07055 0.11642,0 0.19403,-0.07055 0.0811,-0.07408 0.0988,-0.1905 0.004,-0.05292 0,-0.123472 0,-0.07408 0,-0.102306 0,-0.02822 0,-0.105833 0.004,-0.07761 0,-0.123473 -0.0176,-0.116416 -0.0988,-0.186972 -0.0776,-0.07408 -0.19403,-0.07408 -0.0635,0 -0.10936,0.03528 -0.0176,0.01058 -0.0282,0.01058 -0.0176,0 -0.0318,-0.01411 l -0.15875,-0.169333 q -0.0282,-0.03528 -0.004,-0.05997 l 0.51506,-0.599722 q 0.0176,-0.02117 -0.0106,-0.02117 h -0.80433 q -0.0176,0 -0.0318,-0.01058 -0.0106,-0.01411 -0.0106,-0.03175 v -0.264583 q 0,-0.01764 0.0106,-0.02822 0.0141,-0.01411 0.0318,-0.01411 h 1.25589 q 0.0176,0 0.0282,0.01411 0.0141,0.01058 0.0141,0.02822 v 0.278694 q 0,0.03528 -0.0176,0.05292 l -0.41627,0.511528 q -0.0106,0.01411 0.0106,0.02117 0.17992,0.03881 0.29633,0.201084 0.11995,0.15875 0.13759,0.356305 z"
         style="fill:#ffffff"
         id="path1000"
         inkscape:connector-curvature="0" />
      <path
         d="m 117.71799,26.15601 q 0.0176,0 0.0282,0.01411 0.0141,0.01058 0.0141,0.02822 v 0.28575 q 0,0.01764 -0.0141,0.03175 -0.0106,0.01058 -0.0282,0.01058 h -0.10583 q -0.0176,0 -0.0176,0.01764 v 0.582083 q 0,0.01764 -0.0141,0.03175 -0.0106,0.01058 -0.0282,0.01058 h -0.32456 q -0.0176,0 -0.0318,-0.01058 -0.0106,-0.01411 -0.0106,-0.03175 V 26.54406 q 0,-0.01764 -0.0176,-0.01764 h -0.83608 q -0.0176,0 -0.0318,-0.01058 -0.0106,-0.01411 -0.0106,-0.03175 v -0.229306 q 0,-0.03175 0.007,-0.05292 l 0.49036,-1.467556 q 0.0106,-0.03528 0.0459,-0.03528 h 0.35278 q 0.0212,0 0.0318,0.01411 0.0106,0.01058 0.004,0.03528 l -0.45156,1.386417 q -0.004,0.02117 0.0141,0.02117 h 0.38453 q 0.0176,0 0.0176,-0.01764 v -0.423334 q 0,-0.01764 0.0106,-0.02822 0.0141,-0.01411 0.0318,-0.01411 h 0.32456 q 0.0176,0 0.0282,0.01411 0.0141,0.01058 0.0141,0.02822 v 0.423334 q 0,0.01764 0.0176,0.01764 z"
         style="letter-spacing:0.96043748px;fill:#ffffff"
         id="path1002"
         inkscape:connector-curvature="0" />
      <path
         d="m 119.59273,27.196704 q -0.29986,0 -0.4833,-0.172861 -0.17992,-0.176389 -0.17992,-0.465667 v -1.248833 q 0,-0.289278 0.17992,-0.462139 0.18344,-0.176389 0.4833,-0.176389 0.29987,0 0.48331,0.176389 0.18697,0.172861 0.18697,0.465667 v 0.137583 q 0,0.01764 -0.0141,0.03175 -0.0106,0.01058 -0.0282,0.01058 h -0.32456 q -0.0176,0 -0.0318,-0.01058 -0.0106,-0.01411 -0.0106,-0.03175 v -0.144639 q 0,-0.127 -0.0741,-0.204611 -0.0706,-0.07761 -0.18698,-0.07761 -0.11641,0 -0.18697,0.07761 -0.0705,0.07761 -0.0705,0.204611 v 1.255889 q 0,0.127 0.0705,0.204611 0.0706,0.07761 0.18697,0.07761 0.11642,0 0.18698,-0.07761 0.0741,-0.07761 0.0741,-0.204611 v -0.338667 q 0,-0.01764 -0.0176,-0.01764 h -0.21519 q -0.0176,0 -0.0318,-0.01058 -0.0106,-0.01411 -0.0106,-0.03175 v -0.257528 q 0,-0.01764 0.0106,-0.02822 0.0141,-0.01411 0.0318,-0.01411 h 0.59972 q 0.0176,0 0.0282,0.01411 0.0141,0.01058 0.0141,0.02822 v 0.652639 q 0,0.289278 -0.18697,0.465667 -0.18344,0.172861 -0.48331,0.172861 z"
         style="letter-spacing:1.03187501px;fill:#ffffff"
         id="path1004"
         inkscape:connector-curvature="0" />
      <path
         d="m 122.81547,26.145426 q 0.0212,0.109361 0.0212,0.261056 0,0.144639 -0.0141,0.246944 -0.0176,0.261056 -0.18344,0.402167 -0.16581,0.141111 -0.44097,0.141111 -0.26106,0 -0.42334,-0.134056 -0.16228,-0.134055 -0.19755,-0.402166 l -0.0106,-0.09878 q 0,-0.04233 0.0423,-0.04233 h 0.32455 q 0.0423,0 0.0459,0.04233 0,0.02117 0.007,0.0635 0.0423,0.218722 0.21167,0.218722 0.0882,0 0.14111,-0.05644 0.0564,-0.05645 0.0741,-0.15875 0.0141,-0.08819 0.0141,-0.225778 0,-0.130528 -0.0212,-0.225778 -0.0176,-0.09172 -0.0741,-0.141111 -0.0529,-0.05292 -0.13405,-0.05292 -0.16934,0 -0.21873,0.162277 -0.0106,0.03881 -0.0459,0.03881 h -0.32808 q -0.0176,0 -0.0318,-0.01058 -0.0106,-0.01411 -0.0106,-0.03175 v -1.400528 q 0,-0.01764 0.0106,-0.02822 0.0141,-0.01411 0.0318,-0.01411 h 1.15005 q 0.0176,0 0.0282,0.01411 0.0141,0.01058 0.0141,0.02822 v 0.268111 q 0,0.01764 -0.0141,0.03175 -0.0106,0.01058 -0.0282,0.01058 h -0.76552 q -0.0176,0 -0.0176,0.01764 v 0.687917 q 0,0.01058 0.007,0.01411 0.007,0 0.0141,-0.0071 0.06,-0.0635 0.14464,-0.09878 0.0882,-0.03881 0.18345,-0.03881 0.21166,0 0.33866,0.137583 0.13053,0.134056 0.15523,0.381 z"
         style="letter-spacing:0.96308333px;fill:#ffffff"
         id="path1006"
         inkscape:connector-curvature="0" />
      <path
         d="m 125.29456,26.159537 q 0.0176,0.116417 0.0176,0.246945 0,0.08114 -0.007,0.229305 -0.0176,0.268112 -0.18697,0.416278 -0.1658,0.144639 -0.44097,0.144639 -0.26106,0 -0.42333,-0.134056 -0.16228,-0.137583 -0.19403,-0.402166 -0.0212,-0.09525 -0.0212,-0.22225 l -0.004,-1.146528 q 0,-0.28575 0.17286,-0.451555 0.17639,-0.169334 0.46214,-0.169334 0.26811,0 0.43745,0.169334 0.16933,0.169333 0.16933,0.451555 v 0.0882 q 0,0.01764 -0.0141,0.03175 -0.0106,0.01058 -0.0282,0.01058 h -0.32456 q -0.0176,0 -0.0318,-0.01058 -0.0106,-0.01411 -0.0106,-0.03175 v -0.06703 q 0,-0.119945 -0.06,-0.197556 -0.0565,-0.08114 -0.13759,-0.08114 -0.0988,0 -0.16227,0.07761 -0.06,0.07761 -0.06,0.201084 v 0.363361 q 0,0.01058 0.007,0.01411 0.007,0.0035 0.0141,-0.0035 0.10231,-0.09525 0.254,-0.09525 0.24342,0 0.39511,0.155222 0.1517,0.155223 0.17639,0.41275 z m -0.40569,0.4445 q 0.0106,-0.127 0.0106,-0.225777 0,-0.09172 -0.0176,-0.250473 -0.0423,-0.204611 -0.20814,-0.204611 -0.0847,0 -0.14111,0.05645 -0.0529,0.05292 -0.0706,0.15875 -0.0141,0.123472 -0.0141,0.239889 0,0.102305 0.0106,0.236361 0.0176,0.112889 0.0706,0.172861 0.0564,0.05997 0.14464,0.05997 0.0882,0 0.14111,-0.0635 0.0564,-0.0635 0.0741,-0.179917 z"
         style="fill:#ffffff"
         id="path1008"
         inkscape:connector-curvature="0" />
    </g>
    <rect
       ry="0"
       y="19.662533"
       x="75.01355"
       height="3"
       width="2.5"
       id="rect7028"
       style="opacity:1;fill:#00ff00;fill-opacity:1;stroke:none;stroke-width:0.1;stroke-linecap:butt;stroke-linejoin:miter;stroke-miterlimit:10;stroke-dasharray:none;stroke-opacity:1;paint-order:fill markers stroke" />
    <rect
       style="opacity:1;fill:#00ff00;fill-opacity:1;stroke:none;stroke-width:0.1;stroke-linecap:square;stroke-linejoin:miter;stroke-miterlimit:10;stroke-dasharray:none;stroke-opacity:1;paint-order:markers stroke fill"
       id="rect7030"
       width="2.5"
       height="3"
       x="77.563553"
       y="19.662533"
       ry="0" />
    <rect
       ry="0"
       y="19.662533"
       x="80.113556"
       height="3"
       width="2.5"
       id="rect7032"
       style="opacity:1;fill:#000000;fill-opacity:1;stroke:none;stroke-width:0.18520832;stroke-linecap:round;stroke-linejoin:round;stroke-miterlimit:10;stroke-dasharray:none;stroke-opacity:1;paint-order:stroke fill markers" />
    <rect
       style="opacity:1;fill:#00ff00;fill-opacity:1;stroke:none;stroke-width:0.18520832;stroke-linecap:round;stroke-linejoin:round;stroke-miterlimit:10;stroke-dasharray:none;stroke-opacity:1;paint-order:stroke fill markers"
       id="rect7034"
       width="2.5"
       height="3"
       x="82.663551"
       y="19.662533"
       ry="0" />
    <rect
       ry="0"
       y="19.662533"
       x="85.213554"
       height="3"
       width="2.5"
       id="rect7036"
       style="opacity:1;fill:#00ff00;fill-opacity:1;stroke:none;stroke-width:0.18520832;stroke-linecap:round;stroke-linejoin:round;stroke-miterlimit:10;stroke-dasharray:none;stroke-opacity:1;paint-order:stroke fill markers" />
    <rect
       style="opacity:1;fill:#00ff00;fill-opacity:1;stroke:none;stroke-width:0.18520832;stroke-linecap:round;stroke-linejoin:round;stroke-miterlimit:10;stroke-dasharray:none;stroke-opacity:1;paint-order:stroke fill markers"
       id="rect7038"
       width="2.5"
       height="3"
       x="87.76355"
       y="19.662533"
       ry="0" />
    <rect
       ry="0"
       y="19.662533"
       x="90.313553"
       height="3"
       width="2.5"
       id="rect7040"
       style="opacity:1;fill:#00ff00;fill-opacity:1;stroke:none;stroke-width:0.18520832;stroke-linecap:round;stroke-linejoin:round;stroke-miterlimit:10;stroke-dasharray:none;stroke-opacity:1;paint-order:stroke fill markers" />
    <rect
       style="opacity:1;fill:#000000;fill-opacity:1;stroke:none;stroke-width:0.18520832;stroke-linecap:round;stroke-linejoin:round;stroke-miterlimit:10;stroke-dasharray:none;stroke-opacity:1;paint-order:stroke fill markers"
       id="rect7042"
       width="2.5"
       height="3"
       x="92.863548"
       y="19.662533"
       ry="0" />
    <rect
       ry="0"
       y="19.662533"
       x="95.413551"
       height="3"
       width="2.5"
       id="rect7044"
       style="opacity:1;fill:#ff0000;fill-opacity:1;stroke:none;stroke-width:0.18520832;stroke-linecap:round;stroke-linejoin:round;stroke-miterlimit:10;stroke-dasharray:none;stroke-opacity:1;paint-order:stroke fill markers" />
    <rect
       style="opacity:1;fill:#ff0000;fill-opacity:1;stroke:none;stroke-width:0.18520832;stroke-linecap:round;stroke-linejoin:round;stroke-miterlimit:10;stroke-dasharray:none;stroke-opacity:1;paint-order:stroke fill markers"
       id="rect7046"
       width="2.5"
       height="3"
       x="97.963547"
       y="19.662533"
       ry="0" />
    <rect
       ry="0"
       y="19.662533"
       x="100.51355"
       height="3"
       width="2.5"
       id="rect7048"
       style="opacity:1;fill:#ff0000;fill-opacity:1;stroke:none;stroke-width:0.18520832;stroke-linecap:round;stroke-linejoin:round;stroke-miterlimit:10;stroke-dasharray:none;stroke-opacity:1;paint-order:stroke fill markers" />
    <rect
       style="opacity:1;fill:#ff0000;fill-opacity:1;stroke:none;stroke-width:0.18520832;stroke-linecap:round;stroke-linejoin:round;stroke-miterlimit:10;stroke-dasharray:none;stroke-opacity:1;paint-order:stroke fill markers"
       id="rect7050"
       width="2.5"
       height="3"
       x="103.06355"
       y="19.662533"
       ry="0" />
    <rect
       ry="0"
       y="19.662533"
       x="105.61355"
       height="3"
       width="2.5"
       id="rect7052"
       style="opacity:1;fill:#000000;fill-opacity:1;stroke:none;stroke-width:0.18520832;stroke-linecap:round;stroke-linejoin:round;stroke-miterlimit:10;stroke-dasharray:none;stroke-opacity:1;paint-order:stroke fill markers" />
    <rect
       style="opacity:1;fill:#00ff00;fill-opacity:1;stroke:none;stroke-width:0.18520832;stroke-linecap:round;stroke-linejoin:round;stroke-miterlimit:10;stroke-dasharray:none;stroke-opacity:1;paint-order:stroke fill markers"
       id="rect7054"
       width="2.5"
       height="3"
       x="108.16354"
       y="19.662533"
       ry="0" />
    <rect
       ry="0"
       y="19.662533"
       x="110.71355"
       height="3"
       width="2.5"
       id="rect7056"
       style="opacity:1;fill:#00ff00;fill-opacity:1;stroke:none;stroke-width:0.18520832;stroke-linecap:round;stroke-linejoin:round;stroke-miterlimit:10;stroke-dasharray:none;stroke-opacity:1;paint-order:stroke fill markers" />
    <rect
       style="opacity:1;fill:#00ff00;fill-opacity:1;stroke:none;stroke-width:0.18520832;stroke-linecap:round;stroke-linejoin:round;stroke-miterlimit:10;stroke-dasharray:none;stroke-opacity:1;paint-order:stroke fill markers"
       id="rect7058"
       width="2.5"
       height="3"
       x="113.26354"
       y="19.662533"
       ry="0" />
    <rect
       ry="0"
       y="19.662533"
       x="115.81355"
       height="3"
       width="2.5"
       id="rect7060"
       style="opacity:1;fill:#00ff00;fill-opacity:1;stroke:none;stroke-width:0.18520832;stroke-linecap:round;stroke-linejoin:round;stroke-miterlimit:10;stroke-dasharray:none;stroke-opacity:1;paint-order:stroke fill markers" />
    <rect
       style="opacity:1;fill:#000000;fill-opacity:1;stroke:none;stroke-width:0.18520832;stroke-linecap:round;stroke-linejoin:round;stroke-miterlimit:10;stroke-dasharray:none;stroke-opacity:1;paint-order:stroke fill markers"
       id="rect7062"
       width="2.5"
       height="3"
       x="118.36355"
       y="19.662533"
       ry="0" />
    <rect
       ry="0"
       y="19.662533"
       x="120.91354"
       height="3"
       width="2.5"
       id="rect7064"
       style="opacity:1;fill:#ff0000;fill-opacity:1;stroke:none;stroke-width:0.18520832;stroke-linecap:round;stroke-linejoin:round;stroke-miterlimit:10;stroke-dasharray:none;stroke-opacity:1;paint-order:stroke fill markers" />
    <rect
       style="opacity:1;fill:#00ff00;fill-opacity:1;stroke:none;stroke-width:0.18520832;stroke-linecap:round;stroke-linejoin:round;stroke-miterlimit:10;stroke-dasharray:none;stroke-opacity:1;paint-order:stroke fill markers"
       id="rect7066"
       width="2.5"
       height="3"
       x="123.46353"
       y="19.662533"
       ry="0" />
    <g
       aria-label="65G4321GRLDUGRLDUG77"
       style="font-style:normal;font-variant:normal;font-weight:normal;font-stretch:normal;font-size:10.58333302px;line-height:1.25;font-family:Audiowide;-inkscape-font-specification:Audiowide;letter-spacing:0.93397915px;word-spacing:0px;fill:#ffffff;fill-opacity:1;stroke:none;stroke-width:0.26458332"
       id="text7098">
      <path
         d="m 76.954983,21.397033 q 0.01764,0.116416 0.01764,0.246944 0,0.08114 -0.0071,0.229306 -0.01764,0.268111 -0.186973,0.416278 -0.165805,0.144638 -0.440972,0.144638 -0.261055,0 -0.423333,-0.134055 -0.162278,-0.137583 -0.194028,-0.402167 -0.02117,-0.09525 -0.02117,-0.22225 l -0.0035,-1.146527 q 0,-0.28575 0.172861,-0.451556 0.176389,-0.169333 0.462139,-0.169333 0.268111,0 0.437444,0.169333 0.169333,0.169333 0.169333,0.451556 v 0.08819 q 0,0.01764 -0.01411,0.03175 -0.01058,0.01058 -0.02822,0.01058 h -0.324555 q -0.01764,0 -0.03175,-0.01058 -0.01058,-0.01411 -0.01058,-0.03175 v -0.06703 q 0,-0.119944 -0.05997,-0.197555 -0.05644,-0.08114 -0.137583,-0.08114 -0.09878,0 -0.162278,0.07761 -0.05997,0.07761 -0.05997,0.201083 v 0.363361 q 0,0.01058 0.0071,0.01411 0.0071,0.0035 0.01411,-0.0035 0.102306,-0.09525 0.254,-0.09525 0.243417,0 0.395111,0.155222 0.151695,0.155222 0.176389,0.41275 z m -0.405694,0.4445 q 0.01058,-0.127 0.01058,-0.225778 0,-0.09172 -0.01764,-0.250472 -0.04233,-0.204611 -0.208139,-0.204611 -0.08467,0 -0.141111,0.05644 -0.05292,0.05292 -0.07055,0.15875 -0.01411,0.123472 -0.01411,0.239889 0,0.102306 0.01058,0.236361 0.01764,0.112889 0.07056,0.172861 0.05644,0.05997 0.144638,0.05997 0.0882,0 0.141112,-0.0635 0.05644,-0.0635 0.07408,-0.179916 z"
         style="letter-spacing:1.00277078px;fill:#ffffff"
         id="path929"
         inkscape:connector-curvature="0" />
      <path
         d="m 79.466541,21.382922 q 0.02117,0.109361 0.02117,0.261055 0,0.144639 -0.01411,0.246945 -0.01764,0.261055 -0.183444,0.402166 -0.165806,0.141111 -0.440972,0.141111 -0.261056,0 -0.423334,-0.134055 -0.162278,-0.134056 -0.197555,-0.402167 l -0.01058,-0.09878 q 0,-0.04233 0.04233,-0.04233 h 0.324555 q 0.04233,0 0.04586,0.04233 0,0.02117 0.0071,0.0635 0.04233,0.218723 0.211667,0.218723 0.08819,0 0.141111,-0.05645 0.05644,-0.05644 0.07408,-0.15875 0.01411,-0.08819 0.01411,-0.225778 0,-0.130527 -0.02117,-0.225777 -0.01764,-0.09172 -0.07408,-0.141111 -0.05292,-0.05292 -0.134055,-0.05292 -0.169334,0 -0.218723,0.162278 -0.01058,0.0388 -0.04586,0.0388 h -0.328083 q -0.01764,0 -0.03175,-0.01058 -0.01058,-0.01411 -0.01058,-0.03175 v -1.400528 q 0,-0.01764 0.01058,-0.02822 0.01411,-0.01411 0.03175,-0.01411 h 1.150055 q 0.01764,0 0.02822,0.01411 0.01411,0.01058 0.01411,0.02822 v 0.268111 q 0,0.01764 -0.01411,0.03175 -0.01058,0.01058 -0.02822,0.01058 h -0.765527 q -0.01764,0 -0.01764,0.01764 v 0.687916 q 0,0.01058 0.0071,0.01411 0.0071,0 0.01411,-0.0071 0.05997,-0.0635 0.144639,-0.09878 0.08819,-0.03881 0.183445,-0.03881 0.211666,0 0.338666,0.137584 0.130528,0.134055 0.155223,0.381 z"
         style="letter-spacing:0.94720834px;fill:#ffffff"
         id="path931"
         inkscape:connector-curvature="0" />
      <path
         d="m 81.344145,22.434199 q -0.299861,0 -0.483305,-0.172861 -0.179917,-0.176389 -0.179917,-0.465666 v -1.248834 q 0,-0.289277 0.179917,-0.462138 0.183444,-0.176389 0.483305,-0.176389 0.299861,0 0.483306,0.176389 0.186972,0.172861 0.186972,0.465666 v 0.137584 q 0,0.01764 -0.01411,0.03175 -0.01058,0.01058 -0.02822,0.01058 h -0.324556 q -0.01764,0 -0.03175,-0.01058 -0.01058,-0.01411 -0.01058,-0.03175 v -0.144639 q 0,-0.127 -0.07408,-0.204611 -0.07055,-0.07761 -0.186972,-0.07761 -0.116416,0 -0.186972,0.07761 -0.07056,0.07761 -0.07056,0.204611 v 1.255888 q 0,0.127 0.07056,0.204612 0.07056,0.07761 0.186972,0.07761 0.116417,0 0.186972,-0.07761 0.07408,-0.07761 0.07408,-0.204612 v -0.338666 q 0,-0.01764 -0.01764,-0.01764 h -0.215195 q -0.01764,0 -0.03175,-0.01058 -0.01058,-0.01411 -0.01058,-0.03175 v -0.257528 q 0,-0.01764 0.01058,-0.02822 0.01411,-0.01411 0.03175,-0.01411 h 0.599723 q 0.01764,0 0.02822,0.01411 0.01411,0.01058 0.01411,0.02822 v 0.652639 q 0,0.289277 -0.186972,0.465666 -0.183445,0.172861 -0.483306,0.172861 z"
         style="letter-spacing:0.92604166px;fill:#ffffff"
         id="path933"
         inkscape:connector-curvature="0" />
      <path
         d="m 84.559825,21.393505 q 0.01764,0 0.02822,0.01411 0.01411,0.01058 0.01411,0.02822 v 0.28575 q 0,0.01764 -0.01411,0.03175 -0.01058,0.01058 -0.02822,0.01058 h -0.105834 q -0.01764,0 -0.01764,0.01764 v 0.582083 q 0,0.01764 -0.01411,0.03175 -0.01058,0.01058 -0.02822,0.01058 h -0.324555 q -0.01764,0 -0.03175,-0.01058 -0.01058,-0.01411 -0.01058,-0.03175 v -0.582083 q 0,-0.01764 -0.01764,-0.01764 h -0.836083 q -0.01764,0 -0.03175,-0.01058 -0.01058,-0.01411 -0.01058,-0.03175 V 21.49228 q 0,-0.03175 0.0071,-0.05292 l 0.490361,-1.467555 q 0.01058,-0.03528 0.04586,-0.03528 h 0.352777 q 0.02117,0 0.03175,0.01411 0.01058,0.01058 0.0035,0.03528 l -0.451555,1.386416 q -0.0035,0.02117 0.01411,0.02117 h 0.384527 q 0.01764,0 0.01764,-0.01764 v -0.423333 q 0,-0.01764 0.01058,-0.02822 0.01411,-0.01411 0.03175,-0.01411 h 0.324555 q 0.01764,0 0.02822,0.01411 0.01411,0.01058 0.01411,0.02822 v 0.423333 q 0,0.01764 0.01764,0.01764 z"
         style="letter-spacing:0.98425001px;fill:#ffffff"
         id="path935"
         inkscape:connector-curvature="0" />
      <path
         d="m 87.128654,21.400561 q 0.0035,0.0388 0.0035,0.127 v 0.109361 0.105833 q 0,0.08819 -0.0035,0.130528 -0.02117,0.250472 -0.208139,0.405694 -0.183445,0.155222 -0.469195,0.155222 -0.292805,0 -0.483305,-0.155222 -0.1905,-0.155222 -0.211667,-0.405694 -0.01058,-0.09525 -0.01058,-0.197556 0,-0.04233 0.04233,-0.04233 h 0.324556 q 0.04233,0 0.04233,0.04233 0,0.102306 0.0071,0.144639 0.01764,0.119945 0.09172,0.1905 0.07761,0.07056 0.197555,0.07056 0.116417,0 0.194028,-0.07056 0.08114,-0.07408 0.09878,-0.1905 0.0035,-0.05292 0,-0.123472 0,-0.07408 0,-0.102306 0,-0.02822 0,-0.105833 0.0035,-0.07761 0,-0.123472 -0.01764,-0.116417 -0.09878,-0.186972 -0.07761,-0.07408 -0.194028,-0.07408 -0.0635,0 -0.109361,0.03528 -0.01764,0.01058 -0.02822,0.01058 -0.01764,0 -0.03175,-0.01411 l -0.15875,-0.169333 q -0.02822,-0.03528 -0.0035,-0.05997 l 0.515056,-0.599722 q 0.01764,-0.02117 -0.01058,-0.02117 h -0.804333 q -0.01764,0 -0.03175,-0.01058 -0.01058,-0.01411 -0.01058,-0.03175 v -0.264584 q 0,-0.01764 0.01058,-0.02822 0.01411,-0.01411 0.03175,-0.01411 h 1.255889 q 0.01764,0 0.02822,0.01411 0.01411,0.01058 0.01411,0.02822 v 0.278695 q 0,0.03528 -0.01764,0.05292 l -0.416277,0.511528 q -0.01058,0.01411 0.01058,0.02117 0.179917,0.0388 0.296333,0.201083 0.119945,0.15875 0.137584,0.356306 z"
         style="letter-spacing:0.94191664px;fill:#ffffff"
         id="path937"
         inkscape:connector-curvature="0" />
      <path
         d="m 88.366683,22.405977 q -0.01764,0 -0.03175,-0.01058 -0.01058,-0.01411 -0.01058,-0.03175 v -0.282222 q 0,-0.03175 0.01764,-0.05292 l 0.137583,-0.186972 q 0.137583,-0.183445 0.268111,-0.373945 0.134056,-0.1905 0.225778,-0.342194 0.204611,-0.338667 0.204611,-0.560917 0,-0.141111 -0.0635,-0.22225 -0.05997,-0.08114 -0.162278,-0.08114 -0.102305,0 -0.162278,0.08114 -0.05997,0.07761 -0.05644,0.208139 v 0.137584 q 0,0.01764 -0.01411,0.03175 -0.01058,0.01058 -0.02822,0.01058 h -0.331611 q -0.01764,0 -0.03175,-0.01058 -0.01058,-0.01411 -0.01058,-0.03175 v -0.151695 q 0.01411,-0.282222 0.1905,-0.455083 0.179917,-0.172861 0.462139,-0.172861 0.278695,0 0.448028,0.183444 0.172861,0.179917 0.172861,0.47625 0,0.176389 -0.05997,0.34925 -0.05997,0.172861 -0.1905,0.370417 -0.102306,0.162278 -0.377472,0.553861 -0.03881,0.05644 -0.07408,0.105833 -0.03175,0.04586 -0.05644,0.08467 -0.0071,0.0071 -0.0035,0.01411 0.0035,0.0071 0.01411,0.0071 h 0.754945 q 0.01764,0 0.02822,0.01411 0.01411,0.01058 0.01411,0.02822 v 0.268111 q 0,0.01764 -0.01411,0.03175 -0.01058,0.01058 -0.02822,0.01058 z"
         style="letter-spacing:1.26999998px;fill:#ffffff"
         id="path939"
         inkscape:connector-curvature="0" />
      <path
         d="m 91.343356,19.950644 q 0.03528,-0.01411 0.05292,-0.01411 h 0.338667 q 0.01764,0 0.02822,0.01411 0.01411,0.01058 0.01411,0.02822 v 2.384778 q 0,0.01764 -0.01411,0.03175 -0.01058,0.01058 -0.02822,0.01058 h -0.324556 q -0.01764,0 -0.03175,-0.01058 -0.01058,-0.01411 -0.01058,-0.03175 v -2.017889 q 0,-0.0071 -0.0071,-0.01058 -0.0071,-0.0071 -0.01411,-0.0035 l -0.250472,0.07408 q -0.0071,0.0035 -0.01764,0.0035 -0.03175,0 -0.03175,-0.0388 v -0.232834 q 0,-0.03528 0.03175,-0.04939 z"
         style="letter-spacing:1.37318754px;fill:#ffffff"
         id="path941"
         inkscape:connector-curvature="0" />
      <path
         d="m 94.108693,22.434199 q -0.299861,0 -0.483306,-0.172861 -0.179916,-0.176389 -0.179916,-0.465666 v -1.248834 q 0,-0.289277 0.179916,-0.462138 0.183445,-0.176389 0.483306,-0.176389 0.299861,0 0.483306,0.176389 0.186972,0.172861 0.186972,0.465666 v 0.137584 q 0,0.01764 -0.01411,0.03175 -0.01058,0.01058 -0.02822,0.01058 h -0.324555 q -0.01764,0 -0.03175,-0.01058 -0.01058,-0.01411 -0.01058,-0.03175 v -0.144639 q 0,-0.127 -0.07408,-0.204611 -0.07055,-0.07761 -0.186972,-0.07761 -0.116417,0 -0.186972,0.07761 -0.07056,0.07761 -0.07056,0.204611 v 1.255888 q 0,0.127 0.07056,0.204612 0.07055,0.07761 0.186972,0.07761 0.116417,0 0.186972,-0.07761 0.07408,-0.07761 0.07408,-0.204612 v -0.338666 q 0,-0.01764 -0.01764,-0.01764 h -0.215195 q -0.01764,0 -0.03175,-0.01058 -0.01058,-0.01411 -0.01058,-0.03175 v -0.257528 q 0,-0.01764 0.01058,-0.02822 0.01411,-0.01411 0.03175,-0.01411 h 0.599722 q 0.01764,0 0.02822,0.01411 0.01411,0.01058 0.01411,0.02822 v 0.652639 q 0,0.289277 -0.186972,0.465666 -0.183445,0.172861 -0.483306,0.172861 z"
         style="letter-spacing:0.91281247px;fill:#ffffff"
         id="path943"
         inkscape:connector-curvature="0" />
      <path
         d="m 96.990115,22.405977 q -0.03528,0 -0.04586,-0.03528 L 96.640865,21.3547 q -0.0071,-0.01411 -0.01764,-0.01411 H 96.43978 q -0.01764,0 -0.01764,0.01764 v 1.005417 q 0,0.01764 -0.01411,0.03175 -0.01058,0.01058 -0.02822,0.01058 h -0.324556 q -0.01764,0 -0.03175,-0.01058 -0.01058,-0.01411 -0.01058,-0.03175 v -2.388306 q 0,-0.01764 0.01058,-0.02822 0.01411,-0.01411 0.03175,-0.01411 h 0.663223 q 0.186972,0 0.328083,0.09172 0.144639,0.0882 0.22225,0.254 0.08114,0.162278 0.08114,0.373945 0,0.218722 -0.08467,0.381 -0.08467,0.15875 -0.236361,0.239889 -0.01411,0.0035 -0.01058,0.02117 l 0.345722,1.061861 q 0.0035,0.0071 0.0035,0.01764 0,0.03175 -0.03881,0.03175 z m -0.550334,-2.120194 q -0.01764,0 -0.01764,0.01764 v 0.702028 q 0,0.01764 0.01764,0.01764 h 0.215195 q 0.127,0 0.204611,-0.09878 0.08114,-0.09878 0.08114,-0.264584 0,-0.172861 -0.08114,-0.271639 -0.07761,-0.102305 -0.204611,-0.102305 z"
         style="letter-spacing:0.93397915px;fill:#ffffff"
         id="path945"
         inkscape:connector-curvature="0" />
      <path
         d="m 98.615318,22.405977 q -0.01764,0 -0.03175,-0.01058 -0.01058,-0.01411 -0.01058,-0.03175 v -2.384778 q 0,-0.01764 0.01058,-0.02822 0.01411,-0.01411 0.03175,-0.01411 h 0.324555 q 0.01764,0 0.02822,0.01411 0.01411,0.01058 0.01411,0.02822 v 2.056695 q 0,0.01764 0.01764,0.01764 h 0.762 q 0.01764,0 0.02822,0.01411 0.01411,0.01058 0.01411,0.02822 v 0.268111 q 0,0.01764 -0.01411,0.03175 -0.01058,0.01058 -0.02822,0.01058 z"
         style="letter-spacing:1.06097937px;fill:#ffffff"
         id="path947"
         inkscape:connector-curvature="0" />
      <path
         d="m 101.13702,22.405977 q -0.0176,0 -0.0318,-0.01058 -0.0106,-0.01411 -0.0106,-0.03175 v -2.384778 q 0,-0.01764 0.0106,-0.02822 0.0141,-0.01411 0.0318,-0.01411 h 0.60325 q 0.30339,0 0.4833,0.183444 0.18345,0.183445 0.18345,0.490361 v 1.121834 q 0,0.306916 -0.18345,0.490361 -0.17991,0.183444 -0.4833,0.183444 z m 0.36689,-0.370416 q 0,0.01764 0.0176,0.01764 l 0.21166,-0.0035 q 0.11642,0 0.18697,-0.09172 0.0741,-0.09525 0.0776,-0.250472 v -1.072444 q 0,-0.15875 -0.0741,-0.250472 -0.0705,-0.09525 -0.19403,-0.09525 h -0.20813 q -0.0176,0 -0.0176,0.01764 z"
         style="letter-spacing:0.89693749px;fill:#ffffff"
         id="path949"
         inkscape:connector-curvature="0" />
      <path
         d="m 104.31169,22.434199 q -0.30339,0 -0.48684,-0.194027 -0.17991,-0.197556 -0.17991,-0.518584 v -1.742722 q 0,-0.01764 0.0106,-0.02822 0.0141,-0.01411 0.0318,-0.01411 h 0.32456 q 0.0176,0 0.0282,0.01411 0.0141,0.01058 0.0141,0.02822 v 1.785056 q 0,0.141111 0.0705,0.229305 0.0706,0.08819 0.18698,0.08819 0.11641,0 0.18697,-0.08819 0.0705,-0.08819 0.0705,-0.229305 v -1.785056 q 0,-0.01764 0.0106,-0.02822 0.0141,-0.01411 0.0317,-0.01411 h 0.32455 q 0.0176,0 0.0282,0.01411 0.0141,0.01058 0.0141,0.02822 v 1.742722 q 0,0.321028 -0.18345,0.518584 -0.18344,0.194027 -0.4833,0.194027 z"
         style="letter-spacing:0.86254168px;fill:#ffffff"
         id="path951"
         inkscape:connector-curvature="0" />
      <path
         d="m 106.83057,22.434199 q -0.29986,0 -0.4833,-0.172861 -0.17992,-0.176389 -0.17992,-0.465666 v -1.248834 q 0,-0.289277 0.17992,-0.462138 0.18344,-0.176389 0.4833,-0.176389 0.29987,0 0.48331,0.176389 0.18697,0.172861 0.18697,0.465666 v 0.137584 q 0,0.01764 -0.0141,0.03175 -0.0106,0.01058 -0.0282,0.01058 h -0.32456 q -0.0176,0 -0.0318,-0.01058 -0.0106,-0.01411 -0.0106,-0.03175 v -0.144639 q 0,-0.127 -0.0741,-0.204611 -0.0706,-0.07761 -0.18698,-0.07761 -0.11641,0 -0.18697,0.07761 -0.0706,0.07761 -0.0706,0.204611 v 1.255888 q 0,0.127 0.0706,0.204612 0.0706,0.07761 0.18697,0.07761 0.11642,0 0.18698,-0.07761 0.0741,-0.07761 0.0741,-0.204612 v -0.338666 q 0,-0.01764 -0.0176,-0.01764 h -0.21519 q -0.0176,0 -0.0318,-0.01058 -0.0106,-0.01411 -0.0106,-0.03175 v -0.257528 q 0,-0.01764 0.0106,-0.02822 0.0141,-0.01411 0.0318,-0.01411 h 0.59972 q 0.0176,0 0.0282,0.01411 0.0141,0.01058 0.0141,0.02822 v 0.652639 q 0,0.289277 -0.18697,0.465666 -0.18344,0.172861 -0.48331,0.172861 z"
         style="letter-spacing:0.90752083px;fill:#ffffff"
         id="path953"
         inkscape:connector-curvature="0" />
      <path
         d="m 109.70671,22.405977 q -0.0353,0 -0.0459,-0.03528 L 109.35746,21.3547 q -0.007,-0.01411 -0.0176,-0.01411 h -0.18345 q -0.0176,0 -0.0176,0.01764 v 1.005417 q 0,0.01764 -0.0141,0.03175 -0.0106,0.01058 -0.0282,0.01058 h -0.32455 q -0.0176,0 -0.0318,-0.01058 -0.0106,-0.01411 -0.0106,-0.03175 v -2.388306 q 0,-0.01764 0.0106,-0.02822 0.0141,-0.01411 0.0318,-0.01411 h 0.66322 q 0.18697,0 0.32808,0.09172 0.14464,0.0882 0.22225,0.254 0.0811,0.162278 0.0811,0.373945 0,0.218722 -0.0847,0.381 -0.0847,0.15875 -0.23636,0.239889 -0.0141,0.0035 -0.0106,0.02117 l 0.34572,1.061861 q 0.004,0.0071 0.004,0.01764 0,0.03175 -0.0388,0.03175 z m -0.55034,-2.120194 q -0.0176,0 -0.0176,0.01764 v 0.702028 q 0,0.01764 0.0176,0.01764 h 0.2152 q 0.127,0 0.20461,-0.09878 0.0811,-0.09878 0.0811,-0.264584 0,-0.172861 -0.0811,-0.271639 -0.0776,-0.102305 -0.20461,-0.102305 z"
         style="letter-spacing:0.98425001px;fill:#ffffff"
         id="path955"
         inkscape:connector-curvature="0" />
      <path
         d="m 111.38218,22.405977 q -0.0176,0 -0.0318,-0.01058 -0.0106,-0.01411 -0.0106,-0.03175 v -2.384778 q 0,-0.01764 0.0106,-0.02822 0.0141,-0.01411 0.0318,-0.01411 h 0.32455 q 0.0176,0 0.0282,0.01411 0.0141,0.01058 0.0141,0.02822 v 2.056695 q 0,0.01764 0.0176,0.01764 h 0.762 q 0.0176,0 0.0282,0.01411 0.0141,0.01058 0.0141,0.02822 v 0.268111 q 0,0.01764 -0.0141,0.03175 -0.0106,0.01058 -0.0282,0.01058 z"
         style="letter-spacing:1.06891668px;fill:#ffffff"
         id="path957"
         inkscape:connector-curvature="0" />
      <path
         d="m 113.91182,22.405977 q -0.0176,0 -0.0318,-0.01058 -0.0106,-0.01411 -0.0106,-0.03175 v -2.384778 q 0,-0.01764 0.0106,-0.02822 0.0141,-0.01411 0.0318,-0.01411 h 0.60325 q 0.30339,0 0.4833,0.183444 0.18345,0.183445 0.18345,0.490361 v 1.121834 q 0,0.306916 -0.18345,0.490361 -0.17991,0.183444 -0.4833,0.183444 z m 0.36689,-0.370416 q 0,0.01764 0.0176,0.01764 l 0.21166,-0.0035 q 0.11642,0 0.18698,-0.09172 0.0741,-0.09525 0.0776,-0.250472 v -1.072444 q 0,-0.15875 -0.0741,-0.250472 -0.0705,-0.09525 -0.19402,-0.09525 h -0.20814 q -0.0176,0 -0.0176,0.01764 z"
         style="letter-spacing:0.84666669px;fill:#ffffff"
         id="path959"
         inkscape:connector-curvature="0" />
      <path
         d="m 117.03622,22.434199 q -0.30339,0 -0.48684,-0.194027 -0.17991,-0.197556 -0.17991,-0.518584 v -1.742722 q 0,-0.01764 0.0106,-0.02822 0.0141,-0.01411 0.0318,-0.01411 h 0.32455 q 0.0176,0 0.0282,0.01411 0.0141,0.01058 0.0141,0.02822 v 1.785056 q 0,0.141111 0.0705,0.229305 0.0706,0.08819 0.18698,0.08819 0.11641,0 0.18697,-0.08819 0.0705,-0.08819 0.0705,-0.229305 v -1.785056 q 0,-0.01764 0.0106,-0.02822 0.0141,-0.01411 0.0318,-0.01411 h 0.32455 q 0.0176,0 0.0282,0.01411 0.0141,0.01058 0.0141,0.02822 v 1.742722 q 0,0.321028 -0.18345,0.518584 -0.18344,0.194027 -0.4833,0.194027 z"
         style="letter-spacing:0.8942917px;fill:#ffffff"
         id="path961"
         inkscape:connector-curvature="0" />
      <path
         d="m 119.58686,22.434199 q -0.29987,0 -0.48331,-0.172861 -0.17992,-0.176389 -0.17992,-0.465666 v -1.248834 q 0,-0.289277 0.17992,-0.462138 0.18344,-0.176389 0.48331,-0.176389 0.29986,0 0.4833,0.176389 0.18697,0.172861 0.18697,0.465666 v 0.137584 q 0,0.01764 -0.0141,0.03175 -0.0106,0.01058 -0.0282,0.01058 h -0.32456 q -0.0176,0 -0.0318,-0.01058 -0.0106,-0.01411 -0.0106,-0.03175 v -0.144639 q 0,-0.127 -0.0741,-0.204611 -0.0706,-0.07761 -0.18697,-0.07761 -0.11642,0 -0.18698,0.07761 -0.0705,0.07761 -0.0705,0.204611 v 1.255888 q 0,0.127 0.0705,0.204612 0.0706,0.07761 0.18698,0.07761 0.11641,0 0.18697,-0.07761 0.0741,-0.07761 0.0741,-0.204612 v -0.338666 q 0,-0.01764 -0.0176,-0.01764 h -0.21519 q -0.0176,0 -0.0318,-0.01058 -0.0106,-0.01411 -0.0106,-0.03175 v -0.257528 q 0,-0.01764 0.0106,-0.02822 0.0141,-0.01411 0.0318,-0.01411 h 0.59972 q 0.0176,0 0.0282,0.01411 0.0141,0.01058 0.0141,0.02822 v 0.652639 q 0,0.289277 -0.18697,0.465666 -0.18344,0.172861 -0.4833,0.172861 z"
         style="letter-spacing:1.03187501px;fill:#ffffff"
         id="path963"
         inkscape:connector-curvature="0" />
      <path
         d="m 121.77242,22.405977 q -0.0459,0 -0.0353,-0.04586 l 0.58209,-2.049639 q 0.007,-0.02117 -0.0141,-0.02117 h -0.47625 q -0.0176,0 -0.0176,0.01764 v 0.127 q 0,0.01764 -0.0141,0.03175 -0.0106,0.01058 -0.0282,0.01058 h -0.25047 q -0.0176,0 -0.0318,-0.01058 -0.0106,-0.01411 -0.0106,-0.03175 l 0.004,-0.455084 q 0,-0.01764 0.0106,-0.02822 0.0141,-0.01411 0.0318,-0.01411 h 1.19592 q 0.0176,0 0.0282,0.01411 0.0141,0.01058 0.0141,0.02822 v 0.28575 q 0,0.01411 -0.007,0.04939 l -0.58914,2.056694 q -0.0106,0.03528 -0.0494,0.03528 z"
         style="letter-spacing:1.14829171px;fill:#ffffff"
         id="path965"
         inkscape:connector-curvature="0" />
      <path
         d="m 124.30564,22.405977 q -0.0459,0 -0.0353,-0.04586 l 0.58208,-2.049639 q 0.007,-0.02117 -0.0141,-0.02117 h -0.47625 q -0.0176,0 -0.0176,0.01764 v 0.127 q 0,0.01764 -0.0141,0.03175 -0.0106,0.01058 -0.0282,0.01058 h -0.25048 q -0.0176,0 -0.0318,-0.01058 -0.0106,-0.01411 -0.0106,-0.03175 l 0.004,-0.455084 q 0,-0.01764 0.0106,-0.02822 0.0141,-0.01411 0.0318,-0.01411 h 1.19592 q 0.0176,0 0.0282,0.01411 0.0141,0.01058 0.0141,0.02822 v 0.28575 q 0,0.01411 -0.007,0.04939 l -0.58914,2.056694 q -0.0106,0.03528 -0.0494,0.03528 z"
         style="letter-spacing:1.03187501px;fill:#ffffff"
         id="path967"
         inkscape:connector-curvature="0" />
    </g>
  </g>
</svg>
